<svg width="10" height="17" viewBox="0 0 10 17" fill="none" xmlns="http://www.w3.org/2000/svg">
<path d="M0.366068 16.261C0.131729 16.0266 8.49172e-05 15.7087 8.49316e-05 15.3772C8.49461e-05 15.0458 0.131729 14.7279 0.366068 14.4935L6.55357 8.30597L0.366069 2.11847C0.138371 1.88272 0.0123784 1.56696 0.0152261 1.23922C0.0180738 0.911471 0.149535 0.597955 0.381295 0.366195C0.613055 0.134435 0.926572 0.00297509 1.25432 0.000127429C1.58206 -0.00272023 1.89782 0.123272 2.13357 0.350971L9.20482 7.42222C9.43916 7.65663 9.5708 7.97451 9.5708 8.30597C9.5708 8.63743 9.43916 8.95531 9.20482 9.18972L2.13357 16.261C1.89916 16.4953 1.58127 16.627 1.24982 16.627C0.918363 16.627 0.600477 16.4953 0.366068 16.261Z" fill="white"/>
</svg>
