<svg width="20" height="12" viewBox="0 0 20 12" fill="none" xmlns="http://www.w3.org/2000/svg">
<path fill-rule="evenodd" clip-rule="evenodd" d="M17.8021 8.015C17.8021 8.015 19.4191 9.612 19.8191 10.351C19.8269 10.3617 19.8329 10.3735 19.8371 10.386C20.0001 10.659 20.0401 10.873 19.9601 11.031C19.8251 11.292 19.3681 11.423 19.2131 11.434H16.3551C16.1561 11.434 15.7421 11.382 15.2381 11.034C14.8531 10.765 14.4701 10.322 14.0991 9.889C13.5451 9.246 13.0661 8.688 12.5811 8.688C12.5198 8.68787 12.459 8.69801 12.4011 8.718C12.0341 8.834 11.5681 9.357 11.5681 10.75C11.5681 11.186 11.2241 11.434 10.9831 11.434H9.67409C9.22809 11.434 6.90609 11.278 4.84709 9.107C2.32409 6.449 0.05809 1.117 0.03609 1.07C-0.10491 0.725 0.19109 0.537 0.51109 0.537H3.39709C3.78409 0.537 3.91009 0.771 3.99809 0.981C4.10009 1.222 4.47809 2.186 5.09809 3.269C6.10209 5.031 6.71909 5.748 7.21209 5.748C7.30471 5.74827 7.39577 5.72413 7.47609 5.678C8.12009 5.324 8.00009 3.024 7.97009 2.55C7.97009 2.458 7.96909 1.523 7.63909 1.071C7.40309 0.747 7.00109 0.621 6.75809 0.575C6.82309 0.481 6.96109 0.337 7.13809 0.252C7.57909 0.0319999 8.37609 0 9.16709 0H9.60609C10.4641 0.012 10.6861 0.0669999 10.9981 0.146C11.6261 0.296 11.6381 0.703 11.5831 2.089C11.5671 2.485 11.5501 2.931 11.5501 3.456C11.5501 3.568 11.5451 3.693 11.5451 3.82C11.5261 4.531 11.5011 5.332 12.0031 5.661C12.0682 5.70156 12.1434 5.72304 12.2201 5.723C12.3941 5.723 12.9151 5.723 14.3281 3.298C14.9481 2.227 15.4281 0.964 15.4611 0.869C15.4891 0.816 15.5731 0.667 15.6751 0.607C15.7476 0.568395 15.8289 0.54911 15.9111 0.551H19.3061C19.6761 0.551 19.9271 0.607 19.9761 0.747C20.0581 0.974 19.9601 1.667 18.4101 3.763C18.1491 4.112 17.9201 4.414 17.7191 4.678C16.3141 6.522 16.3141 6.615 17.8021 8.015Z" fill="white"/>
</svg>
